<svg width="24" height="24" viewBox="0 0 24 24" fill="none" xmlns="http://www.w3.org/2000/svg">
<path d="M17.2611 5.48733C15.1205 2.65275 13.0152 0.399094 12.9266 0.304547C12.7448 0.110484 12.488 0 12.2188 0C11.9495 0 11.6927 0.110484 11.5109 0.304547C11.4223 0.399094 9.31698 2.65275 7.17636 5.48733C4.2185 9.40425 2.71875 12.4164 2.71875 14.4403V14.6965C2.71875 19.8265 6.98041 24 12.2188 24C13.8462 24 15.4524 23.5898 16.8637 22.8138C17.3255 22.5599 17.4892 21.9882 17.2293 21.537C16.9694 21.0858 16.3844 20.9258 15.9224 21.1799C14.7978 21.7981 13.5172 22.125 12.2188 22.125C8.51221 22.125 5.41886 19.5047 4.76547 16.0553C5.21101 16.2887 5.66418 16.4062 6.12234 16.4062C7.1042 16.4062 8.06327 15.8668 8.97292 14.8029C9.01792 14.7502 9.10026 14.7188 9.19305 14.7188C9.28584 14.7188 9.36817 14.7502 9.41323 14.8029C10.3229 15.8668 11.2819 16.4062 12.2638 16.4062C13.2456 16.4062 14.2047 15.8668 15.1143 14.8029C15.1593 14.7502 15.2417 14.7188 15.3345 14.7188C15.4273 14.7188 15.5096 14.7502 15.5546 14.8029C16.4643 15.8668 17.4234 16.4062 18.4052 16.4062C18.8299 16.4062 19.2503 16.3051 19.6644 16.1045C19.5274 16.8073 19.287 17.4848 18.9434 18.1296C18.6986 18.5888 18.8813 19.155 19.3514 19.3941C19.8213 19.6333 20.4009 19.4547 20.6457 18.9955C21.3477 17.6782 21.7188 16.1916 21.7188 14.6965V14.4402C21.7188 12.4164 20.219 9.40425 17.2611 5.48733ZM18.4052 14.5312C18.0352 14.5312 17.5331 14.1922 17.0276 13.6009C16.6162 13.1198 15.9991 12.8438 15.3345 12.8438C14.6698 12.8438 14.0527 13.1198 13.6414 13.6009C13.1358 14.1922 12.6337 14.5312 12.2638 14.5312C11.8938 14.5312 11.3917 14.1922 10.8862 13.6009C10.4748 13.1198 9.85771 12.8438 9.19305 12.8438C8.52838 12.8438 7.91132 13.1198 7.49994 13.6009C6.99442 14.1922 6.49231 14.5312 6.12234 14.5312C5.75285 14.5312 5.2516 14.193 4.74676 13.6032C5.12777 11.9719 6.50186 9.54052 8.71114 6.61322C10.0593 4.82686 11.4211 3.24797 12.2188 2.35139C13.014 3.24506 14.3702 4.81734 15.7167 6.60047C17.9694 9.58355 19.3552 12.0517 19.7086 13.6852C19.2285 14.224 18.7571 14.5312 18.4052 14.5312Z" fill="#5A5A5A"/>
</svg>
