<svg width="24" height="24" viewBox="0 0 24 24" fill="none" xmlns="http://www.w3.org/2000/svg">
<path d="M12 22.125C6.41709 22.125 1.875 17.583 1.875 12C1.875 6.41705 6.41709 1.875 12 1.875C17.5829 1.875 22.125 6.41709 22.125 12C22.125 17.5829 17.583 22.125 12 22.125ZM12 2.8125C6.93398 2.8125 2.8125 6.93398 2.8125 12C2.8125 17.066 6.93398 21.1875 12 21.1875C17.066 21.1875 21.1875 17.066 21.1875 12C21.1875 6.93398 17.066 2.8125 12 2.8125Z" fill="#5A5A5A"/>
<path d="M12.008 13.7699C11.9118 13.7699 11.8147 13.7621 11.7173 13.7463C11.1494 13.6541 10.6761 13.3061 10.4188 12.7915L8.67499 9.30398C8.58475 9.12351 8.62014 8.90559 8.76278 8.7629C8.90552 8.62026 9.12349 8.58487 9.30386 8.67511L12.7915 10.4189C13.306 10.6762 13.654 11.1495 13.7462 11.7174C13.8384 12.2853 13.6579 12.8444 13.2511 13.2512C12.9141 13.5882 12.4725 13.7699 12.008 13.7699ZM10.1424 10.1425L11.2573 12.3723C11.3782 12.6141 11.6006 12.7776 11.8675 12.8209C12.1345 12.8642 12.397 12.7794 12.5882 12.5882C12.7794 12.3971 12.8642 12.1344 12.8208 11.8675C12.7775 11.6007 12.614 11.3782 12.3723 11.2574L10.1424 10.1425Z" fill="#5A5A5A"/>
<path d="M12 5.625C11.7411 5.625 11.5312 5.41509 11.5312 5.15625V4.21875C11.5312 3.95991 11.7411 3.75 12 3.75C12.2588 3.75 12.4688 3.95991 12.4688 4.21875V5.15625C12.4688 5.41509 12.2588 5.625 12 5.625Z" fill="#5A5A5A"/>
<path d="M16.8392 7.6295C16.7192 7.6295 16.5993 7.5837 16.5077 7.4922C16.3247 7.30916 16.3247 7.01234 16.5077 6.82925L17.1707 6.1663C17.3538 5.9833 17.6505 5.9833 17.8336 6.1663C18.0167 6.34935 18.0167 6.64616 17.8336 6.82925L17.1707 7.4922C17.0791 7.5837 16.9592 7.6295 16.8392 7.6295Z" fill="#5A5A5A"/>
<path d="M19.7812 12.4688H18.8438C18.5849 12.4688 18.375 12.2588 18.375 12C18.375 11.7411 18.5849 11.5312 18.8438 11.5312H19.7812C20.0401 11.5312 20.25 11.7411 20.25 12C20.25 12.2588 20.0401 12.4688 19.7812 12.4688Z" fill="#5A5A5A"/>
<path d="M17.5021 17.9709C17.3821 17.9709 17.2622 17.9251 17.1707 17.8336L16.5077 17.1707C16.3247 16.9876 16.3247 16.6908 16.5077 16.5077C16.6908 16.3247 16.9875 16.3247 17.1707 16.5077L17.8336 17.1707C18.0167 17.3537 18.0167 17.6505 17.8336 17.8336C17.742 17.9251 17.6221 17.9709 17.5021 17.9709Z" fill="#5A5A5A"/>
<path d="M12.9375 18.375H11.0625C10.8036 18.375 10.5938 18.1651 10.5938 17.9062C10.5938 17.6474 10.8036 17.4375 11.0625 17.4375H12.9375C13.1963 17.4375 13.4062 17.6474 13.4062 17.9062C13.4062 18.1651 13.1963 18.375 12.9375 18.375Z" fill="#5A5A5A"/>
<path d="M12.9375 20.25H11.0625C10.8036 20.25 10.5938 20.0401 10.5938 19.7812C10.5938 19.5224 10.8036 19.3125 11.0625 19.3125H12.9375C13.1963 19.3125 13.4062 19.5224 13.4062 19.7812C13.4062 20.0401 13.1963 20.25 12.9375 20.25Z" fill="#5A5A5A"/>
<path d="M6.49781 17.9709C6.37786 17.9709 6.25791 17.9251 6.16636 17.8336C5.98331 17.6506 5.98327 17.3538 6.16631 17.1707L6.82922 16.5077C7.01227 16.3247 7.30908 16.3247 7.49213 16.5077C7.67517 16.6908 7.67522 16.9876 7.49217 17.1707L6.82927 17.8336C6.73777 17.9251 6.61777 17.9709 6.49781 17.9709Z" fill="#5A5A5A"/>
<path d="M5.15625 12.4688H4.21875C3.95986 12.4688 3.75 12.2588 3.75 12C3.75 11.7411 3.95986 11.5312 4.21875 11.5312H5.15625C5.41514 11.5312 5.625 11.7411 5.625 12C5.625 12.2588 5.41514 12.4688 5.15625 12.4688Z" fill="#5A5A5A"/>
<path d="M7.16075 7.62947C7.04075 7.62947 6.92085 7.58368 6.8293 7.49218L6.16639 6.82922C5.98335 6.64617 5.98335 6.34936 6.16644 6.16627C6.34949 5.98331 6.6463 5.98331 6.82935 6.16627L7.49226 6.82922C7.6753 7.01227 7.6753 7.30908 7.49221 7.49218C7.40071 7.58368 7.28071 7.62947 7.16075 7.62947Z" fill="#5A5A5A"/>
<path d="M12 24C8.79469 24 5.78123 22.7518 3.51473 20.4853C1.24819 18.2188 0 15.2053 0 12C0 8.79469 1.24819 5.78123 3.51473 3.51469C5.78123 1.24823 8.79469 0 12 0C14.9167 0 17.7283 1.05905 19.917 2.982C20.1115 3.15291 20.1307 3.44906 19.9598 3.64355C19.7889 3.83794 19.4927 3.85716 19.2983 3.6863C17.2807 1.91372 14.6888 0.9375 12 0.9375C5.90011 0.9375 0.9375 5.90011 0.9375 12C0.9375 18.0999 5.90011 23.0625 12 23.0625C18.0999 23.0625 23.0625 18.0999 23.0625 12C23.0625 10.0544 22.5505 8.14125 21.5818 6.46739C21.4521 6.24333 21.5287 5.95655 21.7527 5.82689C21.9769 5.69719 22.2636 5.77378 22.3932 5.9978C23.4444 7.81416 24 9.88969 24 12C24 15.2053 22.7518 18.2188 20.4853 20.4853C18.2188 22.7518 15.2053 24 12 24Z" fill="#5A5A5A"/>
<path d="M20.9144 5.15393C21.1733 5.15393 21.3831 4.94406 21.3831 4.68518C21.3831 4.4263 21.1733 4.21643 20.9144 4.21643C20.6555 4.21643 20.4456 4.4263 20.4456 4.68518C20.4456 4.94406 20.6555 5.15393 20.9144 5.15393Z" fill="#5A5A5A"/>
</svg>
