<svg width="24" height="24" viewBox="0 0 24 24" fill="none" xmlns="http://www.w3.org/2000/svg">
<path d="M16 13.5278V3.99998C16 1.79086 14.2091 0 12 0C9.79087 0 8.00002 1.79086 8.00002 3.99998V13.5278C6.7725 14.6264 6 16.223 6 18C6 21.3137 8.68631 24 12 24C15.3137 24 18 21.3137 18 18C18 16.223 17.2275 14.6264 16 13.5278ZM12 22C9.79087 22 8.00002 20.2091 8.00002 18C8.00002 16.8451 8.48944 15.7738 9.33384 15.018L10 14.4218V3.99998C10 2.89542 10.8955 1.99997 12 1.99997C13.1046 1.99997 14.0001 2.89538 14.0001 3.99998V14.4218L14.6663 15.018C15.5107 15.7738 16.0001 16.8451 16.0001 18C16 20.2091 14.2091 22 12 22Z" fill="#5A5A5A"/>
<path d="M13 8H11V20H13V8Z" fill="#5A5A5A"/>
<path d="M12 21C13.6569 21 15 19.6569 15 18C15 16.3431 13.6569 15 12 15C10.3431 15 9 16.3431 9 18C9 19.6569 10.3431 21 12 21Z" fill="#5A5A5A"/>
</svg>
