<svg width="24" height="24" viewBox="0 0 24 24" fill="none" xmlns="http://www.w3.org/2000/svg">
<path d="M20 5C17.7909 5 16 6.79086 16 8.99998H18C18 7.89542 18.8955 6.99997 20 6.99997C21.1046 6.99997 22 7.89538 22 8.99998C22 10.1046 21.1046 11 20 11H6V13H20C22.2091 13 24 11.2091 24 8.99998C24 6.79086 22.2091 5 20 5Z" fill="#5A5A5A"/>
<path d="M15.9273 15H4.00018V17H15.9273C17.0319 17 17.9273 17.8955 17.9273 19V19.0729C17.9273 20.1372 17.0645 21 16.0002 21V23.0001C18.1691 23.0001 19.9273 21.2418 19.9273 19.073V19.0001C19.9273 16.7909 18.1365 15 15.9273 15Z" fill="#5A5A5A"/>
<path d="M3.99998 11H0V13H3.99998V11Z" fill="#5A5A5A"/>
<path d="M9.98779 1C7.81227 1 6.04865 2.76363 6.04865 4.93914V5.19189H8.04866V4.93914C8.04866 3.86819 8.91683 3.00002 9.98779 3.00002C11.0587 3.00002 11.9269 3.86819 11.9269 4.93914V5.00003C11.9269 6.10459 11.0315 7.00005 9.9269 7.00005H1.99982V9.00002H9.92694C12.1361 9.00002 13.9269 7.20916 13.9269 5.00003V4.93914C13.9269 2.76363 12.1633 1 9.98779 1Z" fill="#5A5A5A"/>
</svg>
